0.16m3min_grf.mot
version=1
nRows=10
nColumns 19
inDegrees=yes
endheader
time	1_ground_force_vx	1_ground_force_vy	1_ground_force_vz	1_ground_force_px	1_ground_force_py	1_ground_force_pz	1_ground_torque_x	1_ground_torque_y	1_ground_torque_z	2_ground_force_vx	2_ground_force_vy	2_ground_force_vz	2_ground_force_px	2_ground_force_py	2_ground_force_pz	2_ground_torque_x	2_ground_torque_y	2_ground_torque_z
            0.005000	           -0.135932	           -1.264246	            0.545202	           -0.181827	            0.006258	           -0.411211	           -0.154071	           -0.258808	           -0.025345	            1.868329	            0.946588	           -5.347315	           -0.208525	            0.005702	           -0.689693	           -0.605790	            1.301898	            0.118011
            0.005500	            0.047275	           -0.362882	            0.548611	           -0.181827	            0.006258	           -0.411211	           -0.117335	           -0.175123	           -0.111281	            1.777952	            0.025508	           -5.350561	           -0.208525	            0.005702	           -0.689693	           -0.680743	            1.245045	            0.080141
            0.006000	            0.093169	           -1.264005	            0.498777	           -0.181827	            0.006258	           -0.411211	           -0.039598	           -0.008949	           -0.052380	            1.684252	            0.025170	           -5.350521	           -0.208525	            0.005702	           -0.689693	           -0.549401	            1.301833	            0.193388
            0.006500	            0.139012	           -1.263996	            0.498663	           -0.181827	            0.006258	           -0.411211	           -0.077161	            0.120472	           -0.049777	            1.728464	            0.761765	           -5.300985	           -0.208525	            0.005702	           -0.689693	           -0.624346	            1.244913	            0.174368
            0.007000	            0.001207	           -1.623964	            0.359891	           -0.181827	            0.006258	           -0.411211	           -0.070706	            0.129004	            0.094777	            1.680867	            0.946414	           -5.488020	           -0.208525	            0.005702	           -0.689693	           -0.586715	            1.226210	            0.155434
            0.007500	            0.093252	           -2.345402	            0.448283	           -0.181827	            0.006258	           -0.411211	           -0.018130	            0.000216	           -0.033557	            1.684170	            0.025839	           -5.538233	           -0.208525	            0.005702	           -0.689693	           -0.662068	            1.273538	            0.061384
            0.008000	           -0.274162	           -0.542226	            0.319355	           -0.181827	            0.006258	           -0.411211	           -0.013621	           -0.147529	           -0.125096	            1.777952	            0.025508	           -5.350561	           -0.208525	            0.005702	           -0.689693	           -0.624466	            1.282589	            0.212203
            0.008500	            0.047083	           -1.804221	            0.359004	           -0.181827	            0.006258	           -0.411211	           -0.127206	           -0.249321	           -0.055129	            1.729711	            0.394138	           -5.490011	           -0.208525	            0.005702	           -0.689693	           -0.605722	            1.282993	            0.117944
            0.009000	           -0.136292	           -0.542790	            0.456582	           -0.181827	            0.006258	           -0.411211	           -0.019339	           -0.110730	           -0.062666	            2.060278	           -0.340937	           -5.586635	           -0.208525	            0.005702	           -0.689693	           -0.661873	            1.226073	            0.117766
            0.009500	            0.139173	           -0.903858	            0.591921	           -0.181827	            0.006258	           -0.411211	           -0.062476	            0.074181	           -0.031227	            1.731061	            0.025674	           -5.444397	           -0.208525	            0.005702	           -0.689693	           -0.681024	            1.320734	            0.061560
